<svg width="34" height="34" viewBox="0 0 34 34" fill="none" xmlns="http://www.w3.org/2000/svg">
<g clip-path="url(#clip0)">
<path d="M33.7628 12.2148L29.9643 2.33858C29.2445 0.471579 27.1474 -0.458383 25.2804 0.261414C25.2533 0.271887 25.2263 0.282643 25.1994 0.293753L6.21692 8.16255C4.40943 8.904 3.52108 10.95 4.21349 12.7768L4.73543 14.17H3.53813C1.58501 14.1722 0.00219364 15.755 0 17.7081V30.4454C0.00219364 32.3985 1.58501 33.9813 3.53813 33.9835H27.5974C29.5505 33.9813 31.1334 32.3985 31.1355 30.4454V17.7081C31.1344 17.5161 31.1174 17.3245 31.0846 17.1352L31.7418 16.8692C33.5655 16.1217 34.4617 14.0576 33.7628 12.2148ZM3.53813 15.3023H27.5974C28.868 15.3059 29.9162 16.2982 29.9892 17.5667H1.14635C1.21938 16.2981 2.26752 15.3058 3.53813 15.3023ZM9.22801 11.8921L13.0118 9.99962L13.7897 11.9453L10.0058 13.8372L9.22801 11.8921ZM30.0033 30.4455C30.0018 31.7736 28.9256 32.8498 27.5974 32.8514H3.53813C2.20999 32.8498 1.13376 31.7736 1.1322 30.4455V23.2277H30.0033V30.4455ZM30.0033 22.0955H1.1322V18.6989H30.0033V22.0955ZM31.3173 15.8231L30.7257 16.0626C30.1147 14.9004 28.9105 14.1719 27.5974 14.1701H11.8723L14.7622 12.7248C15.0257 12.5933 15.1444 12.2816 15.0351 12.0081L13.8344 9.00781C13.7183 8.71754 13.3889 8.5763 13.0986 8.69235C13.0839 8.69823 13.0696 8.70466 13.0555 8.71174L8.25552 11.1131C7.99221 11.2449 7.87383 11.5565 7.98323 11.8298L8.91956 14.1701H5.94406L5.2738 12.3823C4.79862 11.1272 5.40895 9.72181 6.65055 9.21217L25.6325 1.34337C26.9015 0.817184 28.3568 1.4193 28.883 2.68829C28.8912 2.70803 28.8992 2.72792 28.9068 2.74787L32.7053 12.6241C33.1859 13.8904 32.5703 15.309 31.3173 15.8231Z" fill="#787878"/>
<path d="M20.3638 31.2588C21.4187 31.8717 22.7214 31.8717 23.7763 31.2588C25.3983 32.2012 27.4772 31.6501 28.4195 30.0281C29.3619 28.4061 28.8108 26.3272 27.1888 25.3849C26.6682 25.0824 26.0767 24.9238 25.4746 24.9252C24.8778 24.9255 24.2917 25.0841 23.7763 25.3849C22.1543 24.4425 20.0754 24.9935 19.1331 26.6155C18.1907 28.2376 18.7418 30.3164 20.3638 31.2588ZM24.7228 26.1956C24.9636 26.1069 25.2179 26.0602 25.4746 26.0575C26.7252 26.0575 27.739 27.0713 27.739 28.3219C27.739 29.5725 26.7252 30.5863 25.4746 30.5863C25.2179 30.5836 24.9636 30.5369 24.7228 30.4482C25.7251 29.2078 25.7251 27.4359 24.7228 26.1956ZM23.7763 26.8398C24.5311 27.6837 24.5311 28.96 23.7763 29.8039C23.0215 28.96 23.0215 27.6837 23.7763 26.8398ZM22.078 26.0575C22.3347 26.0601 22.589 26.1069 22.8298 26.1956C21.8275 27.4359 21.8275 29.2078 22.8298 30.4482C22.589 30.5369 22.3347 30.5836 22.078 30.5863C20.8274 30.5863 19.8136 29.5725 19.8136 28.3219C19.8136 27.0712 20.8274 26.0575 22.078 26.0575Z" fill="#787878"/>
<path d="M23.8795 11.7002L24.3394 12.7348L29.74 10.3341L29.2801 9.29949L23.8795 11.7002Z" fill="#787878"/>
<path d="M28.0747 6.90275L20.2739 10.5033L20.7482 11.5308L28.5489 7.93027L28.0747 6.90275Z" fill="#787878"/>
</g>
<defs>
<clipPath id="clip0">
<rect width="34" height="34" fill="white"/>
</clipPath>
</defs>
</svg>
