<svg width="43" height="29" viewBox="0 0 43 29" fill="none" xmlns="http://www.w3.org/2000/svg">
<path d="M38.5209 0.166626H4.47914C2.01025 0.166626 0 2.17688 0 4.64585V24.3542C0 26.8231 2.01025 28.8333 4.47914 28.8333H38.5208C40.9897 28.8333 42.9999 26.8231 42.9999 24.3542V4.64585C43 2.17688 40.9897 0.166626 38.5209 0.166626ZM41.2084 24.3541C41.2084 25.8359 40.0026 27.0416 38.5209 27.0416H4.47914C2.9974 27.0416 1.79164 25.8359 1.79164 24.3541V4.64585C1.79164 3.16411 2.9974 1.95835 4.47914 1.95835H38.5208C40.0025 1.95835 41.2083 3.16411 41.2083 4.64585V24.3541H41.2084Z" fill="#9B9B9B"/>
<path d="M42.1041 5.54163H0.895861C0.401361 5.54163 0 5.94299 0 6.43749V11.8125C0 12.307 0.401361 12.7083 0.895861 12.7083H42.1042C42.5987 12.7083 43.0001 12.307 43.0001 11.8125V6.43749C43 5.94299 42.5986 5.54163 42.1041 5.54163ZM41.2084 10.9166H1.79164V7.33326H41.2083V10.9166H41.2084Z" fill="#9B9B9B"/>
<path d="M17.0209 21.6666H6.27086C5.77636 21.6666 5.375 22.068 5.375 22.5625C5.375 23.057 5.77636 23.4584 6.27086 23.4584H17.0209C17.5154 23.4584 17.9167 23.057 17.9167 22.5625C17.9166 22.068 17.5154 21.6666 17.0209 21.6666Z" fill="#9B9B9B"/>
<path d="M34.9376 16.2916H33.146C31.6643 16.2916 30.4585 17.4974 30.4585 18.9791V20.7708C30.4585 22.2525 31.6643 23.4583 33.146 23.4583H34.9376C36.4194 23.4583 37.6251 22.2525 37.6251 20.7708V18.9791C37.6251 17.4975 36.4194 16.2916 34.9376 16.2916ZM35.8335 20.7709C35.8335 21.2654 35.4321 21.6667 34.9376 21.6667H33.146C32.6515 21.6667 32.2501 21.2654 32.2501 20.7709V18.9792C32.2501 18.4847 32.6515 18.0834 33.146 18.0834H34.9376C35.4321 18.0834 35.8335 18.4847 35.8335 18.9792V20.7709Z" fill="#9B9B9B"/>
</svg>
