<svg width="38" height="38" viewBox="0 0 38 38" fill="none" xmlns="http://www.w3.org/2000/svg">
<path d="M19 38C13.9249 38 9.15355 36.0237 5.56492 32.4351C1.9763 28.8465 0 24.0751 0 19C0 13.9249 1.97637 9.15362 5.56492 5.56492C9.15347 1.97622 13.9249 0 19 0C24.0751 0 28.8465 1.9763 32.4351 5.56492C36.0237 9.15355 38 13.9249 38 19C38 24.0751 36.0236 28.8464 32.4351 32.4351C28.8465 36.0238 24.0751 38 19 38ZM19 2.375C9.83294 2.375 2.375 9.83294 2.375 19C2.375 28.1671 9.83294 35.625 19 35.625C28.1671 35.625 35.625 28.1671 35.625 19C35.625 9.83294 28.1671 2.375 19 2.375Z" fill="#9B9B9B"/>
<path d="M19 17.8125C17.363 17.8125 16.0312 16.4807 16.0312 14.8438C16.0312 13.2068 17.363 11.875 19 11.875C20.637 11.875 21.9688 13.2068 21.9688 14.8438C21.9688 15.4995 22.5004 16.0312 23.1562 16.0312C23.8121 16.0312 24.3438 15.4995 24.3438 14.8438C24.3438 12.3054 22.5641 10.1763 20.1875 9.63463V8.3125C20.1875 7.6567 19.6559 7.125 19 7.125C18.3441 7.125 17.8125 7.6567 17.8125 8.3125V9.63463C15.4359 10.1763 13.6562 12.3054 13.6562 14.8438C13.6562 17.7903 16.0534 20.1875 19 20.1875C20.637 20.1875 21.9688 21.5193 21.9688 23.1562C21.9688 24.7932 20.637 26.125 19 26.125C17.363 26.125 16.0312 24.7932 16.0312 23.1562C16.0312 22.5005 15.4996 21.9688 14.8438 21.9688C14.1879 21.9688 13.6562 22.5005 13.6562 23.1562C13.6562 25.6946 15.4359 27.8237 17.8125 28.3654V29.6875C17.8125 30.3433 18.3441 30.875 19 30.875C19.6559 30.875 20.1875 30.3433 20.1875 29.6875V28.3654C22.5641 27.8237 24.3438 25.6946 24.3438 23.1562C24.3438 20.2097 21.9466 17.8125 19 17.8125Z" fill="#9B9B9B"/>
</svg>
