<svg width="29" height="29" viewBox="0 0 29 29" fill="none" xmlns="http://www.w3.org/2000/svg">
<path d="M21.9105 21.4929C20.8082 21.4929 19.7715 21.0637 18.9921 20.2846L14.778 16.0706C14.4823 15.7739 13.9665 15.7749 13.6708 16.0706L9.44133 20.3C8.66181 21.079 7.62513 21.5082 6.52278 21.5082H5.69238L11.0294 26.8454C12.6963 28.5121 15.3988 28.5121 17.0657 26.8454L22.4182 21.4929H21.9105Z" fill="white"/>
<path d="M6.52314 6.58711C7.62549 6.58711 8.66216 7.01645 9.44155 7.79557L13.671 12.0257C13.9756 12.3302 14.473 12.3316 14.7783 12.0253L18.9923 7.8109C19.7718 7.03177 20.8085 6.60257 21.9109 6.60257H22.4184L17.066 1.25018C15.3992 -0.416696 12.6967 -0.416696 11.0298 1.25018L5.69287 6.58711H6.52314Z" fill="white"/>
<path d="M26.8454 11.0297L23.6109 7.7952C23.5397 7.82375 23.4626 7.84159 23.3812 7.84159H21.9107C21.1504 7.84159 20.4061 8.14988 19.8689 8.68745L15.6549 12.9015C15.2607 13.2959 14.7425 13.4933 14.2248 13.4933C13.7066 13.4933 13.1889 13.2959 12.7946 12.9019L8.56476 8.67212C8.02746 8.13455 7.28335 7.82626 6.52299 7.82626H4.71472C4.63768 7.82626 4.56553 7.80802 4.49748 7.78239L1.25016 11.0297C-0.416718 12.6965 -0.416718 15.3989 1.25016 17.0659L4.49735 20.3131C4.5654 20.2875 4.63768 20.2693 4.71472 20.2693H6.52299C7.28335 20.2693 8.02746 19.961 8.56476 19.4234L12.7942 15.194C13.5586 14.4302 14.8912 14.4298 15.6549 15.1944L19.8689 19.4079C20.4061 19.9456 21.1504 20.2539 21.9107 20.2539H23.3812C23.4628 20.2539 23.5397 20.2716 23.611 20.3002L26.8454 17.0659C28.5123 15.3989 28.5123 12.6965 26.8454 11.0297Z" fill="white"/>
</svg>
