<svg width="660" height="115" viewBox="0 0 660 115" fill="none" xmlns="http://www.w3.org/2000/svg">
<path d="M30.832 90.008C24.56 90.008 19.1093 88.776 14.48 86.312C9.92533 83.848 6.45333 80.6373 4.064 76.68C1.74933 72.648 0.592 68.4667 0.592 64.136V63.24H19.744V64.024C19.744 66.712 20.7147 69.176 22.656 71.416C24.5973 73.656 27.4347 74.776 31.168 74.776C34.3787 74.776 36.9547 73.9547 38.896 72.312C40.8373 70.6693 41.808 68.504 41.808 65.816C41.808 63.4267 40.9493 61.5227 39.232 60.104C37.5147 58.6107 35.424 57.6027 32.96 57.08L24 55.288C18.7733 54.0933 13.8827 51.8533 9.328 48.568C4.77333 45.2827 2.496 39.9067 2.496 32.44C2.496 27.5867 3.65333 23.4053 5.968 19.896C8.35733 16.3867 11.6427 13.6987 15.824 11.832C20.0053 9.96533 24.7467 9.03199 30.048 9.03199C36.096 9.03199 41.3227 10.1893 45.728 12.504C50.1333 14.8187 53.456 17.8427 55.696 21.576C57.936 25.2347 59.056 29.08 59.056 33.112V33.672H39.904V33.336C39.904 30.9467 39.0453 28.744 37.328 26.728C35.6853 24.6373 33.0347 23.592 29.376 23.592C26.5387 23.592 24.2613 24.376 22.544 25.944C20.9013 27.512 20.08 29.5653 20.08 32.104C20.08 34.568 21.0133 36.5093 22.88 37.928C24.7467 39.3467 26.9867 40.3173 29.6 40.84L38.672 42.856C44.5707 44.1253 49.6107 46.5147 53.792 50.024C57.9733 53.5333 60.064 58.648 60.064 65.368C60.064 70.296 58.7947 74.6267 56.256 78.36C53.7173 82.0933 50.208 84.968 45.728 86.984C41.3227 89 36.3573 90.008 30.832 90.008ZM96.5165 90.008C90.2445 90.008 84.9432 88.6267 80.6125 85.864C76.3565 83.1013 73.1832 79.4053 71.0925 74.776C69.0018 70.1467 67.9565 64.9947 67.9565 59.32C67.9565 53.72 69.0018 48.6053 71.0925 43.976C73.1832 39.272 76.3565 35.5387 80.6125 32.776C84.9432 29.9387 90.2445 28.52 96.5165 28.52C102.789 28.52 108.053 29.9013 112.309 32.664C116.639 35.4267 119.85 39.16 121.941 43.864C124.031 48.4933 125.077 53.608 125.077 59.208C125.077 64.808 124.031 69.96 121.941 74.664C119.85 79.2933 116.639 83.0267 112.309 85.864C108.053 88.6267 102.789 90.008 96.5165 90.008ZM96.5165 76.008C100.399 76.008 103.274 74.4027 105.141 71.192C107.007 67.9813 107.941 63.9493 107.941 59.096C107.941 54.2427 107.007 50.2853 105.141 47.224C103.274 44.088 100.399 42.52 96.5165 42.52C92.6338 42.52 89.7592 44.088 87.8925 47.224C86.0258 50.36 85.0925 54.3173 85.0925 59.096C85.0925 63.9493 86.0258 67.9813 87.8925 71.192C89.8338 74.4027 92.7085 76.008 96.5165 76.008ZM155.091 89.336C149.192 89.336 144.824 88.44 141.987 86.648C139.224 84.856 137.507 82.6907 136.835 80.152C136.163 77.6133 135.827 74.3653 135.827 70.408L135.939 4.99999H153.299V66.824C153.299 69.4373 153.411 71.416 153.635 72.76C153.933 74.0293 154.68 75.0373 155.875 75.784C157.144 76.5307 159.123 76.904 161.811 76.904C163.229 76.904 164.2 76.8293 164.723 76.68V88.776C161.363 89.1493 158.152 89.336 155.091 89.336ZM176.324 29.752H193.684V89H176.324V29.752ZM184.948 19.896C182.26 19.896 180.02 19 178.228 17.208C176.436 15.3413 175.54 13.1013 175.54 10.488C175.54 7.8 176.436 5.56 178.228 3.768C180.02 1.90133 182.26 0.967999 184.948 0.967999C187.636 0.967999 189.876 1.90133 191.668 3.768C193.535 5.56 194.468 7.8 194.468 10.488C194.468 13.1013 193.535 15.3413 191.668 17.208C189.876 19 187.636 19.896 184.948 19.896ZM228.508 90.008C221.19 90.008 215.516 87.2453 211.484 81.72C207.526 76.12 205.548 68.6533 205.548 59.32C205.548 49.8373 207.526 42.3333 211.484 36.808C215.516 31.2827 221.228 28.52 228.62 28.52C233.622 28.52 237.468 29.64 240.156 31.88C242.918 34.0453 244.822 36.248 245.868 38.488H246.764V4.88799H264.348V89H246.764V79.48H245.868C244.598 82.0187 242.62 84.408 239.932 86.648C237.244 88.888 233.436 90.008 228.508 90.008ZM235.004 76.232C238.961 76.232 241.91 74.552 243.852 71.192C245.868 67.832 246.876 63.8747 246.876 59.32C246.876 54.84 245.905 50.9573 243.964 47.672C242.022 44.3867 239.036 42.744 235.004 42.744C230.972 42.744 227.985 44.3867 226.044 47.672C224.177 50.8827 223.244 54.7653 223.244 59.32C223.244 63.8747 224.177 67.832 226.044 71.192C227.985 74.552 230.972 76.232 235.004 76.232ZM299.779 43.304V67.048C299.779 69.6613 299.891 71.6027 300.115 72.872C300.414 74.0667 301.16 75.0373 302.355 75.784C303.624 76.5307 305.64 76.904 308.403 76.904C309.822 76.904 311.278 76.7547 312.771 76.456V88.552C312.024 88.7013 310.531 88.8507 308.291 89C306.051 89.224 303.811 89.336 301.571 89.336C295.747 89.336 291.416 88.4773 288.579 86.76C285.816 85.0427 284.099 82.952 283.427 80.488C282.755 78.024 282.419 74.8133 282.419 70.856V43.304H272.899V29.752H282.419V10.6H299.779V29.752H312.771V43.304H299.779ZM350.999 97.512C350.028 100.2 348.908 102.664 347.639 104.904C346.444 107.144 344.242 109.347 341.031 111.512C337.82 113.677 333.602 114.76 328.375 114.76C326.21 114.76 324.306 114.573 322.663 114.2C321.095 113.827 320.087 113.603 319.639 113.528V101.432C321.431 101.731 322.999 101.88 324.343 101.88C327.852 101.88 330.428 101.096 332.071 99.528C333.714 97.96 335.17 95.5333 336.439 92.248L338.119 88.104L317.063 29.752H334.647L346.295 68.952H346.967L358.951 29.752H376.535L350.999 97.512ZM412.413 10.6H442.205C447.731 10.6 452.136 11.6827 455.421 13.848C458.707 16.0133 460.984 18.6267 462.253 21.688C463.523 24.6747 464.157 27.624 464.157 30.536C464.157 34.1947 463.299 37.3307 461.581 39.944C459.939 42.4827 457.96 44.4613 455.645 45.88C453.405 47.224 451.427 48.008 449.709 48.232V48.68C451.427 48.7547 453.629 49.352 456.317 50.472C459.08 51.592 461.544 53.5333 463.709 56.296C465.875 58.984 466.957 62.5307 466.957 66.936C466.957 70.5947 466.099 74.104 464.381 77.464C462.739 80.824 460.125 83.5867 456.541 85.752C453.032 87.9173 448.627 89 443.325 89H412.413V10.6ZM441.085 46.888C444.371 46.888 447.432 46.2907 450.269 45.096C453.181 43.9013 455.533 42.0347 457.325 39.496C459.192 36.9573 460.125 33.784 460.125 29.976C460.125 24.7493 458.371 20.8667 454.861 18.328C451.352 15.7893 446.76 14.52 441.085 14.52H415.997V46.888H441.085ZM441.981 85.08C448.104 85.08 453.107 83.6987 456.989 80.936C460.947 78.0987 462.925 73.6187 462.925 67.496C462.925 61.448 460.984 57.1547 457.101 54.616C453.219 52.0773 448.179 50.808 441.981 50.808H415.997V85.08H441.981ZM504.592 89.56C499.141 89.56 494.437 88.1787 490.48 85.416C486.597 82.6533 483.611 78.9573 481.52 74.328C479.504 69.6987 478.496 64.584 478.496 58.984C478.496 53.384 479.504 48.2693 481.52 43.64C483.611 38.936 486.672 35.2027 490.704 32.44C494.736 29.6773 499.515 28.296 505.04 28.296C514.896 28.296 522.213 33.112 526.992 42.744H527.776V30.2H531.584V89H527.776V75H526.992C524.827 79.3307 521.877 82.84 518.144 85.528C514.485 88.216 509.968 89.56 504.592 89.56ZM504.928 85.528C509.707 85.528 513.776 84.3707 517.136 82.056C520.496 79.7413 523.035 76.568 524.752 72.536C526.469 68.504 527.328 63.9867 527.328 58.984C527.328 51.2187 525.349 44.8347 521.392 39.832C517.509 34.8293 512.021 32.328 504.928 32.328C497.685 32.328 492.123 34.8293 488.24 39.832C484.432 44.8347 482.528 51.1813 482.528 58.872C482.528 66.6373 484.432 73.0213 488.24 78.024C492.123 83.0267 497.685 85.528 504.928 85.528ZM552.085 30.2H555.893V42.296H556.677C558.395 38.4133 561.083 35.128 564.741 32.44C568.475 29.6773 573.067 28.296 578.517 28.296C583.296 28.296 587.477 29.416 591.061 31.656C594.645 33.896 597.408 37.032 599.349 41.064C601.291 45.0213 602.261 49.576 602.261 54.728V89H598.453V54.728C598.453 47.4107 596.437 41.9227 592.405 38.264C588.448 34.5307 583.483 32.664 577.509 32.664C573.328 32.664 569.595 33.5973 566.309 35.464C563.024 37.256 560.448 39.832 558.581 43.192C556.789 46.4773 555.893 50.3227 555.893 54.728V89H552.085V30.2ZM621.757 4.99999H625.565V52.6H626.013L652.893 30.2H657.597L626.909 56.072L659.165 89H654.461L626.013 59.88H625.565V89H621.757V4.99999Z" fill="white"/>
</svg>
